<svg xmlns="http://www.w3.org/2000/svg" width="22" height="22" viewBox="0 0 22 22">
	<path fill="#bfc9ca" d="M17,9h-1V6c0-2.761-2.239-5-5-5S6,3.239,6,6v1h2V6c0-1.657,1.343-3,3-3 s3,1.343,3,3v3H5c-1.105,0-2,0.895-2,2v8c0,1.105,0.895,2,2,2h12c1.105,0,2-0.895,2-2v-8C19,9.895,18.105,9,17,9z M11.95,15.75 C11.971,15.832,12,15.911,12,16c0,0.552-0.448,1-1,1s-1-0.448-1-1c0-0.089,0.029-0.168,0.05-0.25C9.428,15.411,9,14.759,9,14 c0-1.105,0.895-2,2-2s2,0.895,2,2C13,14.759,12.572,15.411,11.95,15.75z"/>
</svg>